<svg width="516" height="361" viewBox="0 0 516 361" fill="none" xmlns="http://www.w3.org/2000/svg">
<path d="M49.4799 190.86C41.7499 139.35 24.4799 134.86 11.1999 108.86C-0.890123 85.2101 -10.6401 46.5201 23.4799 18.8601C76.4799 -24.1399 141.48 19.8601 141.48 19.8601C141.48 19.8601 244.48 78.8601 262.48 81.8601C280.48 84.8601 324.48 114.86 379.48 78.8601C434.48 42.8601 481.48 45.8601 496.48 72.8601C511.48 99.8601 477.48 177.86 469.48 193.86C461.48 209.86 473.48 259.86 486.48 279.86C499.48 299.86 540.48 361.86 452.48 359.86C364.48 357.86 100.48 360.86 100.48 360.86C100.48 360.86 5.70991 359.09 22.4799 266.86C36.4799 189.86 52.4799 210.86 49.4799 190.86Z" fill="#F5F0E1"/>
<path d="M83.48 183.86C94.5257 183.86 103.48 174.906 103.48 163.86C103.48 152.815 94.5257 143.86 83.48 143.86C72.4343 143.86 63.48 152.815 63.48 163.86C63.48 174.906 72.4343 183.86 83.48 183.86Z" fill="#BAC5F4"/>
<path d="M49.98 201.86C57.4358 201.86 63.48 195.816 63.48 188.36C63.48 180.905 57.4358 174.86 49.98 174.86C42.5241 174.86 36.48 180.905 36.48 188.36C36.48 195.816 42.5241 201.86 49.98 201.86Z" fill="#BAC5F4"/>
<path d="M51.98 164.86C56.1221 164.86 59.48 161.502 59.48 157.36C59.48 153.218 56.1221 149.86 51.98 149.86C47.8378 149.86 44.48 153.218 44.48 157.36C44.48 161.502 47.8378 164.86 51.98 164.86Z" fill="#BAC5F4"/>
<path d="M495.48 318.86C506.526 318.86 515.48 309.906 515.48 298.86C515.48 287.815 506.526 278.86 495.48 278.86C484.434 278.86 475.48 287.815 475.48 298.86C475.48 309.906 484.434 318.86 495.48 318.86Z" fill="#BAC5F4"/>
<path d="M14.98 69.8604C19.1221 69.8604 22.48 66.5025 22.48 62.3604C22.48 58.2182 19.1221 54.8604 14.98 54.8604C10.8378 54.8604 7.47998 58.2182 7.47998 62.3604C7.47998 66.5025 10.8378 69.8604 14.98 69.8604Z" fill="#BAC5F4"/>
<path d="M139.98 332.86C159.586 332.86 175.48 316.966 175.48 297.36C175.48 277.754 159.586 261.86 139.98 261.86C120.374 261.86 104.48 277.754 104.48 297.36C104.48 316.966 120.374 332.86 139.98 332.86Z" fill="#E1E6FB"/>
<path d="M374.48 349.86C387.735 349.86 398.48 339.115 398.48 325.86C398.48 312.606 387.735 301.86 374.48 301.86C361.225 301.86 350.48 312.606 350.48 325.86C350.48 339.115 361.225 349.86 374.48 349.86Z" fill="#E1E6FB"/>
<path d="M466.48 214.86C473.66 214.86 479.48 209.04 479.48 201.86C479.48 194.681 473.66 188.86 466.48 188.86C459.3 188.86 453.48 194.681 453.48 201.86C453.48 209.04 459.3 214.86 466.48 214.86Z" fill="#E1E6FB"/>
<path d="M369.48 110.86C383.839 110.86 395.48 99.2198 395.48 84.8604C395.48 70.5009 383.839 58.8604 369.48 58.8604C355.121 58.8604 343.48 70.5009 343.48 84.8604C343.48 99.2198 355.121 110.86 369.48 110.86Z" fill="#E1E6FB"/>
<path d="M130.98 27.8604C137.884 27.8604 143.48 22.2639 143.48 15.3604C143.48 8.45679 137.884 2.86035 130.98 2.86035C124.076 2.86035 118.48 8.45679 118.48 15.3604C118.48 22.2639 124.076 27.8604 130.98 27.8604Z" fill="#E1E6FB"/>
<path d="M90.98 276.86C97.8835 276.86 103.48 271.264 103.48 264.36C103.48 257.457 97.8835 251.86 90.98 251.86C84.0764 251.86 78.48 257.457 78.48 264.36C78.48 271.264 84.0764 276.86 90.98 276.86Z" fill="#E1E6FB"/>
<path d="M493.98 131.86C500.884 131.86 506.48 126.264 506.48 119.36C506.48 112.457 500.884 106.86 493.98 106.86C487.076 106.86 481.48 112.457 481.48 119.36C481.48 126.264 487.076 131.86 493.98 131.86Z" fill="#BAC5F4"/>
<path d="M473.98 344.86C481.436 344.86 487.48 338.816 487.48 331.36C487.48 323.905 481.436 317.86 473.98 317.86C466.524 317.86 460.48 323.905 460.48 331.36C460.48 338.816 466.524 344.86 473.98 344.86Z" fill="#BAC5F4"/>
<path d="M503.98 345.86C508.122 345.86 511.48 342.502 511.48 338.36C511.48 334.218 508.122 330.86 503.98 330.86C499.838 330.86 496.48 334.218 496.48 338.36C496.48 342.502 499.838 345.86 503.98 345.86Z" fill="#BAC5F4"/>
</svg>
