<?xml version="1.0" encoding="UTF-8"?><svg xmlns="http://www.w3.org/2000/svg" xmlns:xlink="http://www.w3.org/1999/xlink" width="2148.884" height="2028.681" viewBox="0 0 2148.884 2028.681" x="0px" y="0px" version="1.1">
  <defs>
    
    <clipPath id="clip-path">
      <path d="M1190.453,699.681s5.6-56.7,8.585-112.237c2.336-43.408-7.444-86.818-29.348-124.367a63.639,63.639,0,0,0-9.237-12.4s-46-3-42-43c-26,15-57,15-33-11,59.543-64.5,99.844-77.473,126-70,35,10,70,55,84,87,23,52.573,45.87,261.88,47,338Z" style="
        fill: none;
      "/>
    </clipPath>
    <clipPath id="clip-path-2">
      <path d="M346.147,400.241,329.333,563.373h-.02a676.647,676.647,0,0,0-83.2-12.217c-86.057-53.267-42.855-137.709-42.855-137.709S266.99,404.777,346.147,400.241Z" style="
        fill: none;
      "/>
    </clipPath>
    <clipPath id="clip-path-3">
      <path d="M1019.453,568.681c59,60,158.862,170.585,239.647,310.138l46.353-56.138,305,108c24,250-158,391-344,384s-388-190-421-482C845.453,832.681,877.453,710.681,1019.453,568.681Z" style="
        fill: none;
      "/>
    </clipPath>
    <clipPath id="clip-path-4">
      <path d="M1461.453,377.681s-34-29-63,22c-27.242,47.91-26,194-64.5,262.5-38.232,68.024-118.5,150.5-118.5,150.5s54,134,192,166,201-80,277-18c22-132,70.156-407.362-78-618C1606.453,342.681,1546.613,294.467,1461.453,377.681Z" style="
        fill: none;
      "/>
    </clipPath>
    <clipPath id="clip-path-5">
      <path d="M1606.3,343.042c-80.845-32.361-72.845,73.639-156.288,78.145,15.027-39.073,16.029-74.137,16.029-93.172a75.209,75.209,0,0,0-.982-12.033c-2.835-17.4-11.12-30.767-16.049-34.053-26.048,20.037-58.278,33.352-72.134,30.056-33.992-8.1-50.643-73.927-55.632-94.014-8.626-2-21.309-11.912-13-19.456,3.817-3.6,7.554-7.574,9.116-12.7,1.574-5.2,1.483-11.682,1.483-17.021,0-4.1-.12-8.186-.27-12.273-.2-5.711-.461-11.421-.491-17.142,0-.04-.01-.1-.01-.14-.03-4.238.07-8.476.371-12.724a202.609,202.609,0,0,1,6.922-41.336c9.4-32.41,31.228-59.54,62.325-73.255a133.428,133.428,0,0,1,43.8-10.52,1.223,1.223,0,0,0,.191-.01c.971-.07,1.943-.13,2.9-.19,87.342-4.809,141.151,77.353,115.8,144.828l-4.932,43.652C1547.457,206.712,1565.222,279.926,1606.3,343.042Z" style="
        fill: none;
      "/>
    </clipPath>
    <clipPath id="clip-path-6">
      <path d="M1583.787,1350.189a17.517,17.517,0,0,1-17.09-21.341l133.119-592.365a17.5,17.5,0,0,1,5.813-9.559l219.064-184.139a17.5,17.5,0,0,1,17.166-3.078l159,57a17.5,17.5,0,1,1-11.811,32.947l-149.533-53.606L1732.669,749.917l-131.824,586.6A17.51,17.51,0,0,1,1583.787,1350.189Z" style="
        fill: none;
      "/>
    </clipPath>
    <clipPath id="clip-path-7">
      <path d="M536.133,899.3c-44.57,35.04-73.649,65.26-75.579,67.27a1.329,1.329,0,0,0-.1.11c-31.709,10.65-56.77,13.53-76.57,11.66l-51.609-22.66a80.319,80.319,0,0,1-21.821-42c1.5-2.99,3.63-6.68,6.341-10.96,16.319-25.78,53.409-73.25,96.74-122.54.679-.78,1.379-1.56,2.069-2.35Z" style="
        fill: none;
      "/>
    </clipPath>
    <clipPath id="clip-path-8">
      <path d="M845.453,841.681c-18.618,61.759-58,195-96.987,239.1,0,0,43.987-60.1-38.013-145.1-89.843-93.13-146-177-170-283,0,0,251-226,385.117-152.972,29.271,15.939,60.678,39.18,93.883,68.972C1019.453,568.681,886.453,705.681,845.453,841.681Z" style="
        fill: none;
      "/>
    </clipPath>
    <clipPath id="clip-path-9">
      <path d="M1737.453,678.681c-64.14,255.97-222,391-332,379-106.04-11.57-225.979-204.06-308.34-314.23q-.63-.825-1.23-1.65c-.8-1.05-1.579-2.09-2.349-3.12-5.911-7.82-11.6-15.19-17.081-22-9.76-12.14-18.59-22.28-26.679-30.87-4.831-5.13-9.4-9.7-13.74-13.81-.31-.29-.611-.58-.911-.86-38.649-36.27-59.52-36.07-91.67-67.46-17.34-16.93-11-31-11-31-6.409-8.25-14-23-6-32-19-24-3-38-3-38-17-25-3-45,4-44,16,36,111,72,140,60s10.031-47.75,10.031-47.75c39.03,1.25,40.42,51.95,54.969,90.75,4.311,11.5,11.13,25.16,20.69,36.57.011.01.011.01.02.01,10.391,12.4,22.86,24.52,35.15,35.82q3.421,3.135,6.83,6.17c.06.06.13.11.19.16,14.81,13.17,29.31,24.61,40.321,32.87,3.019,2.26,5.79,4.29,8.219,6.05,5.31,3.84,9.06,6.4,10.58,7.35,43,27,162,125,162,125a378.325,378.325,0,0,0,19.161-52.42C1506.764,689.841,1737.453,678.681,1737.453,678.681Z" style="
        fill: none;
      "/>
    </clipPath>
    <clipPath id="clip-path-10">
      <path d="M1200.654,637.281c-8.111,3.06-71.2,33.4-108.2,103.4l-.03-.03c-1.929-2.68-3.929-5.35-5.97-8.01a470.843,470.843,0,0,0-32.9-38.14q-2.852-2.985-5.721-5.91c12.411-18.25,46.27-63,105.48-90.51C1170.494,613.891,1187.9,627.711,1200.654,637.281Z" style="
        fill: none;
      "/>
    </clipPath>
  </defs>
  <g id="shopping">
    <g>
      <g>
        <path d="M1180.453,760.681s15.6-117.7,18.585-173.237c2.336-43.408-7.444-86.818-29.348-124.367a63.639,63.639,0,0,0-9.237-12.4s-46-3-42-43c-26,15-57,15-33-11,59.543-64.5,99.844-77.473,126-70,35,10,71.478,54.393,84,87,53,138,64,411,57,548l-120-66Z" style="
        fill: #f4ada2;
      "/>
        <g style="
        clip-path: url(#clip-path);
      ">
          <path d="M1297.555,717.253c-3.275-2.21-80.5-54.432-106.369-80.3l3.535-3.536c25.533,25.533,104.833,79.157,105.631,79.7Z" style="
        fill: #9b3c82;
      "/>
          <path d="M1115.955,414.681a2.5,2.5,0,0,1-1.266-4.657c.579-.339,58.263-34.2,88.817-55.882a2.5,2.5,0,1,1,2.895,4.078c-30.734,21.81-88.6,55.777-89.183,56.118A2.5,2.5,0,0,1,1115.955,414.681Z" style="
        fill: #9b3c82;
      "/>
          <path d="M1270.952,502.681a2.5,2.5,0,0,1-1.117-.264c-24.4-12.2-40.359-28.736-55.1-57.083-11.427-21.974-21.492-28.562-39.762-40.522-1.727-1.13-3.523-2.306-5.4-3.546-8.255-5.456-11.659-10.578-10.117-15.223,3.5-10.532,30.454-9.826,38.638-9.358,35.445,2.025,58.532,21.77,59.5,22.609a2.5,2.5,0,0,1-3.28,3.774c-.3-.257-22.884-19.47-56.5-21.391-20.172-1.153-32.365,2.2-33.608,5.942-.7,2.107,2.339,5.65,8.129,9.476,1.87,1.236,3.66,2.408,5.38,3.534,18.353,12.013,29.43,19.264,41.459,42.4,14.209,27.324,29.535,43.235,52.9,54.918a2.5,2.5,0,0,1-1.12,4.736Z" style="
        fill: #9b3c82;
      "/>
          <path d="M1210.784,436.847l-.085,0c-56.1-1.864-71.41-35.238-72.034-36.658a2.5,2.5,0,0,1,4.575-2.018c.046.1,3.691,8.082,13.756,16.162,9.324,7.484,26.238,16.6,53.869,17.517a2.5,2.5,0,0,1-.081,5Z" style="
        fill: #9b3c82;
      "/>
          <path d="M1174.825,444.162a42.193,42.193,0,0,1-6.243-.509c-40.923-6.138-51.505-30.478-51.936-31.511a2.5,2.5,0,0,1,4.612-1.931h0c.1.227,10.108,22.8,48.067,28.5,9.395,1.41,12.712-.719,13.195-2.2.433-1.334-.84-3.61-3.722-5.111a2.5,2.5,0,0,1,2.311-4.434c4.921,2.563,7.456,7.124,6.166,11.092C1186.619,440.072,1184.135,444.162,1174.825,444.162Z" style="
        fill: #9b3c82;
      "/>
          <path d="M1161.458,455.765a16.284,16.284,0,0,1-1.781-.1,2.5,2.5,0,0,1,.553-4.97c4.046.449,7.147-1.322,7.832-3.29.642-1.847-1.249-3.365-2.434-4.105a2.5,2.5,0,1,1,2.651-4.24c4.1,2.565,5.788,6.3,4.506,9.987C1171.374,453.1,1166.764,455.765,1161.458,455.765Z" style="
        fill: #9b3c82;
      "/>
        </g>
        <path d="M1585.974,205.542c22.479,43.139,61.479,83.139,157.479,107.139,66.828,16.707,114.435,56.726,133,114,20.692,63.833,4.284,145-63.3,210.387-125.7,121.613-49.822,191.72-44.7,309.613,5,115-91,131-123,120,0,0-23,125-169,149s66-1041,66-1041S1579.81,193.713,1585.974,205.542Z" style="
        fill: #5b2448;
      "/>
        <g>
          <path d="M440.174,606.487c28.107,104.13,14.387,149.647-33.744,178.859s-208.913-32.873,41.6-387.711C448.026,397.635,405.857,479.354,440.174,606.487Z" style="
        fill: #5b2448;
      "/>
          <path d="M448.024,397.631l-12.341,200.36a351.659,351.659,0,0,0-43.07-17.63,551.08,551.08,0,0,0-63.28-16.99h-.02a675.825,675.825,0,0,0-83.2-12.21c-86.059-53.27-42.849-137.71-42.849-137.71s63.73-8.67,142.879-13.21C378.623,398.371,413.683,397.211,448.024,397.631Z" style="
        fill: #f4ada2;
      "/>
          <path d="M448.024,397.631l-12.341,200.36a351.659,351.659,0,0,0-43.07-17.63q-.075-10.77-.21-21.9C391.264,455.511,448.024,397.631,448.024,397.631Z" style="
        fill: #9b3c82;
      "/>
          <path d="M346.147,400.241,329.333,563.373h-.02a676.647,676.647,0,0,0-83.2-12.217c-86.057-53.267-42.855-137.709-42.855-137.709S266.99,404.777,346.147,400.241Z" style="
        fill: #66b0f0;
      "/>
          <g style="
        clip-path: url(#clip-path-2);
      ">
            <rect x="206.889" y="475.113" width="173.738" height="10" transform="translate(-211.368 728.407) rotate(-84.716)" style="
        fill: #fff;
      "/>
          </g>
          <path d="M942.453,509.681c-93-59-243-109-494.427-112.046,0,0-47.22,84.829-8.107,215.619S406.43,785.346,406.43,785.346,803.453,571.681,942.453,509.681Z" style="
        fill: #f94f46;
      "/>
          <g>
            <path d="M99.28,169.935C81.6,179.619,57.7,211.225,48.3,272.685L2.527,571.889c62.438,6.481,170.715-25.473,243.589-20.732-2.643-28.3-39.619-35.428-43.841-103.591-1.981-31.989,1.713-41.447-1.05-78.1-.107-1.411-.316-2.793-.476-4.18-.045-.388-.083-.766-.13-1.145a366.566,366.566,0,0,0-15.049-69.7c-28.415-87.364-80.537-120.993-85.844-124.245a.008.008,0,0,0-.008-.01c-.122-.076-.228-.13-.3-.17C99.323,169.96,99.28,169.935,99.28,169.935Z" style="
        fill: #fff;
      "/>
            <path d="M3.078,574.564H2.5a2.5,2.5,0,0,1-2.466-2.879l45.8-299.378c9.35-61.118,33.122-94.089,52.25-104.565a2.5,2.5,0,0,1,2.467.036l.1.054c.123.067.239.131.366.208.055.033.109.068.16.105,6.783,4.187,61.029,39.908,89.329,126.923.9,2.766,21.945,68.339,17.623,122.173a2.5,2.5,0,0,1-4.985-.4c4.243-52.85-16.507-117.5-17.392-120.227-26.95-82.858-77.553-118.077-86.5-123.776-17.86,10.65-39.6,42.258-48.468,100.225L5.413,569.555c30.117-.22,61.8-4.659,95.277-9.35,45.7-6.4,92.949-13.022,146-11.028a2.5,2.5,0,0,1-.188,5c-52.605-1.978-99.636,4.611-145.118,10.983C66.861,569.993,34.236,574.564,3.078,574.564Z" style="
        fill: #5b2448;
      "/>
            <path d="M116.807,558.972a2.425,2.425,0,0,1-.305-.019,2.5,2.5,0,0,1-2.18-2.772c.093-.8,2.575-19.718,25.737-41.294,4.84-4.508,9.063-8.117,12.79-11.3,13.97-11.936,20.982-17.927,30.372-44.89a2.5,2.5,0,0,1,4.723,1.645c-9.836,28.241-17.655,34.92-31.848,47.047-3.687,3.151-7.868,6.722-12.629,11.157-11.35,10.573-17.321,20.41-20.331,26.8a42.809,42.809,0,0,0-3.85,11.434A2.505,2.505,0,0,1,116.807,558.972Z" style="
        fill: #5b2448;
      "/>
            <path d="M71.359,568.505a2.5,2.5,0,0,1-1.458-4.532h0a48.3,48.3,0,0,0,10.343-11.519c4.772-7.14,10.6-19.272,11.244-36.526s-4.91-26.884-10.793-37.064c-4.414-7.637-8.979-15.534-10.79-26.743-2.311-14.295.9-23.958,4-33.3,3.64-10.96,7.406-22.294,2.385-42.231-8.2-32.559-11.283-63.06-9.163-90.656,3.258-42.407,18.622-78.159,45.666-106.264a2.5,2.5,0,0,1,3.6,3.466c-26.219,27.247-41.118,61.962-44.285,103.181-2.079,27.056.959,57.018,9.026,89.052,5.378,21.35,1.379,33.388-2.489,45.029-3.048,9.177-5.928,17.845-3.814,30.93,1.665,10.3,5.8,17.459,10.184,25.038,5.979,10.346,12.162,21.043,11.46,39.753-.7,18.55-7.034,31.628-12.229,39.334-5.681,8.428-11.214,12.425-11.446,12.591A2.488,2.488,0,0,1,71.359,568.505Z" style="
        fill: #5b2448;
      "/>
            <path d="M44.905,549a14.32,14.32,0,0,1-2.16-.164c-6.012-.92-10.979-5.594-13.984-13.16-2.825-7.114-3.611-16.065-2.214-25.2,3.009-19.662,14.838-33.615,26.926-31.765s19.2,18.7,16.2,38.362C66.842,535.555,56.215,549,44.905,549Zm6.454-65.453c-8.607,0-17.5,12.173-19.868,27.682-1.267,8.274-.585,16.3,1.917,22.6,2.323,5.849,5.908,9.423,10.093,10.063,9.011,1.38,18.73-11.253,21.227-27.579s-3-31.286-12.011-32.664A8.979,8.979,0,0,0,51.359,483.544Z" style="
        fill: #5b2448;
      "/>
            <path d="M134.834,403.6a7.5,7.5,0,0,1-1.916-14.752c.353-.1,37.974-10.779,59.754-54.5a7.5,7.5,0,1,1,13.426,6.688c-24.929,50.048-67.536,61.839-69.338,62.317A7.532,7.532,0,0,1,134.834,403.6Z" style="
        fill: #ffcf2d;
      "/>
            <path d="M126.425,365.148a7.5,7.5,0,0,1-2.345-14.625c.389-.131,40.861-14.117,58.215-57.525a7.5,7.5,0,0,1,13.928,5.569c-20.024,50.085-65.523,65.569-67.451,66.2A7.471,7.471,0,0,1,126.425,365.148Z" style="
        fill: #ffcf2d;
      "/>
            <path d="M121.662,321.534a7.5,7.5,0,0,1-2.509-14.57c.325-.117,34.8-12.987,49.9-52.117a7.5,7.5,0,1,1,13.994,5.4c-17.658,45.765-57.2,60.258-58.873,60.853A7.506,7.506,0,0,1,121.662,321.534Z" style="
        fill: #ffcf2d;
      "/>
          </g>
        </g>
        <path d="M1019.453,568.681c59,60,158.862,170.585,239.647,310.138l46.353-56.138,305,108c24,250-158,391-344,384s-388-190-421-482C845.453,832.681,877.453,710.681,1019.453,568.681Z" style="
        fill: #f94f46;
      "/>
        <g style="
        clip-path: url(#clip-path-3);
      ">
          <path d="M843.454,860.682a3,3,0,0,1-2.859-3.913c36.794-115.352,82.775-163.206,84.715-165.187a3,3,0,0,1,4.288,4.2c-.465.477-46.979,48.984-83.286,162.814A3,3,0,0,1,843.454,860.682Z" style="
        fill: #fcb6b1;
      "/>
        </g>
        <path d="M1461.453,377.681s-34-29-63,22c-27.242,47.91-26,194-64.5,262.5-38.232,68.024-118.5,150.5-118.5,150.5s54,134,192,166,201-80,277-18c22-132,70.156-407.362-78-618C1606.453,342.681,1546.613,294.467,1461.453,377.681Z" style="
        fill: #ffcf2d;
      "/>
        <g style="
        clip-path: url(#clip-path-4);
      ">
          <path d="M1435.377,759.794l-4.847-1.227c5.84-23.07,11.683-61.236,18.448-105.429,16.824-109.91,37.762-246.7,77.133-289.646l3.685,3.378c-38.343,41.83-60.037,183.547-75.876,287.024C1447.136,698.215,1441.277,736.491,1435.377,759.794Z" style="
        fill: #fff;
      "/>
          <path d="M1334.95,654.685l-3.993-3.009c51.214-67.957,120.99-234.78,121.689-236.457l4.615,1.923C1456.56,418.825,1386.543,586.225,1334.95,654.685Z" style="
        fill: #fff;
      "/>
        </g>
        <path d="M1606.3,343.042c-80.845-32.361-72.845,73.639-156.288,78.145,15.027-39.073,16.029-74.137,16.029-93.172a75.209,75.209,0,0,0-.982-12.033c-2.835-17.4-11.12-30.767-16.049-34.053-26.048,20.037-58.278,33.352-72.134,30.056-33.992-8.1-50.643-73.927-55.632-94.014-8.626-2-21.309-11.912-13-19.456,3.817-3.6,7.554-7.574,9.116-12.7,1.574-5.2,1.483-11.682,1.483-17.021,0-4.1-.12-8.186-.27-12.273-.2-5.711-.461-11.421-.491-17.142,0-.04-.01-.1-.01-.14-.03-4.238.07-8.476.371-12.724a202.609,202.609,0,0,1,6.922-41.336c9.4-32.41,31.228-59.54,62.325-73.255a133.428,133.428,0,0,1,43.8-10.52,1.223,1.223,0,0,0,.191-.01c.971-.07,1.943-.13,2.9-.19,87.342-4.809,141.151,77.353,115.8,144.828l-4.932,43.652C1547.457,206.712,1565.222,279.926,1606.3,343.042Z" style="
        fill: #f4ada2;
      "/>
        <path d="M1318.569,155.519c86.583,18.462,162.884,3.162,162.884,3.162l-114.4-14.345-45.75-5.7-3.235-.4c0,.045,0,.1,0,.144C1318.11,144.093,1318.367,149.8,1318.569,155.519Z" style="
        fill: #9b3c82;
      "/>
        <circle cx="1426.586" cy="208.504" r="27.089" style="
        fill: #e57281;
        opacity: 0.52;
      "/>
        <path d="M1465.057,315.982c-2.835-17.4-11.12-30.767-16.049-34.053,9.016-8.014,12.022-11.02,22.04-21.038,5.08-5.08,10.44-12.313,17.032-9.017C1496.1,255.881,1501.1,287.931,1465.057,315.982Z" style="
        fill: #5b2448;
      "/>
        <path d="M1376.631,149.526c14.626,3.04,23.644,14.387,21.279,21.216s-16.025,9.2-29.843,3.517c-14.2-5.84-23.7-15.151-21.279-21.217C1349.3,146.755,1362.118,146.509,1376.631,149.526Z" style="
        fill: #5b2448;
      "/>
        <path d="M1356.119,249.7a15.791,15.791,0,0,0,8.21-1.023,18.325,18.325,0,0,0,6.873-4.555,15.884,15.884,0,0,0,2.338-3.355,16.283,16.283,0,0,0,1.343-12.147l-.034-.121a2.245,2.245,0,0,1,4.013-1.875,16.546,16.546,0,0,1,2.519,11.427,19.659,19.659,0,0,1-1.669,5.759,21.286,21.286,0,0,1-3.326,5,21.012,21.012,0,0,1-10.156,5.991,19.02,19.02,0,0,1-5.871.616,14.068,14.068,0,0,1-5.823-1.559,2.244,2.244,0,0,1,1.439-4.186Z" style="
        fill: #9b3c82;
      "/>
        <path d="M1370.689,184.061c-5.993-2.18-20.49-7.077-33.29-16.047a3.945,3.945,0,0,0-5.52.995c-3.214,4.654-7.075,13.089,2.43,18.08,11.68,6.133,32.064,5.073,37.118.328A2.026,2.026,0,0,0,1370.689,184.061Z" style="
        fill: #5b2448;
      "/>
        <path d="M1709.453,203.681c-19,39-167.243-10.5-198-24-1.2-.521-1.785.82-2.637.36L1552.2,95.585s.281.121.732.3c1.673.691,5.67,2.354,6.031,2.505a.044.044,0,0,1,.03.01c.931.35,7.1,2.664,16.38,6.452,1.493.611,3.056,1.242,4.709,1.933C1622.448,124.389,1725.516,170.711,1709.453,203.681Z" style="
        fill: #f94f46;
      "/>
        <path d="M1580.08,106.786c-10,59.51-54.321,76.842-69.168,79.727-1.2-.521-2.244-1.012-3.1-1.472,29.555-21.781,43.08-79.738,45.114-89.155,1.673.691,5.67,2.354,6.031,2.505a.044.044,0,0,1,.03.01c.931.35,7.1,2.664,16.38,6.452C1576.864,105.464,1578.427,106.1,1580.08,106.786Z" style="
        fill: #5b2448;
      "/>
        <path d="M1318.073,138.375c4.453,1.6,10.793,3.624,16.095,5.047a.5.5,0,0,0,.17.052c8.665,2.34,19.1,4.715,30.5,6.885.957.181,1.825.339,2.6.487a.176.176,0,0,0,.063.014c37.3,6.955,85.228,12.05,113.958,7.821,9.624-1.421,16.652-2.955,23.732-4.154.866-.143,1.719-.29,2.541-.432,4.382-.747,8.3-1.459,11.817-2.131.49-.093.971-.182,1.451-.27l1.037-.2c.611-.119,1.2-.237,1.779-.352q1.967-.387,3.754-.754c.454-.1.912-.186,1.357-.28,4.55-.951,8.216-1.8,11.3-2.535.449-.107.89-.209,1.316-.316s.832-.215,1.241-.313.795-.2,1.173-.291.755-.189,1.123-.279c.544-.141,1.065-.283,1.573-.407.009,0,.013,0,.018-.009.27-.064.535-.137.8-.2,1.043-.261,2-.505,2.93-.732C1575.727,77.557,1521.927-4.605,1434.583.2c-.964.057-1.937.117-2.906.186-.063.009-.13.008-.193.016a132.977,132.977,0,0,0-43.795,10.521c-31.106,13.714-52.937,40.843-62.326,73.247q-.987,3.4-1.8,6.83a212.717,212.717,0,0,0-5.126,34.509C1318.132,129.8,1318.042,134.091,1318.073,138.375Z" style="
        fill: #f94f46;
      "/>
        <path d="M1481.453,158.681s19.466-29.684,50.591-26.019c29.36,3.458,33.409,49.019-7.964,80.319-6.73,5.091-18.968,12.307-29.265,15.466Z" style="
        fill: #f4ada2;
      "/>
        <g style="
        clip-path: url(#clip-path-5);
      ">
          <path d="M1508.227,224.18a2.5,2.5,0,0,1-.678-4.907h0c.258-.073,26.011-7.671,43.242-37.347a2.5,2.5,0,0,1,4.325,2.51c-18.3,31.515-45.081,39.333-46.212,39.65A2.484,2.484,0,0,1,1508.227,224.18Z" style="
        fill: #9b3c82;
      "/>
        </g>
        <path d="M1496.744,194.043a2.531,2.531,0,0,1-.678-.094,2.5,2.5,0,0,1-1.729-3.084c4.9-17.4,14.81-26.481,22.263-31.03a40.717,40.717,0,0,1,15.4-5.789,2.5,2.5,0,0,1,.537,4.971c-1.03.116-24.932,3.149-33.39,33.2A2.5,2.5,0,0,1,1496.744,194.043Z" style="
        fill: #9b3c82;
      "/>
        <path d="M1318.073,138.375c4.453,1.6,10.793,3.624,16.095,5.047a.5.5,0,0,0,.17.052c8.665,2.34,19.1,4.715,30.5,6.885.957.181,1.825.339,2.6.487,3.7-10.46,3.469-29.506-4.461-41.247s-21.292-18.617-39.4-18.6a212.717,212.717,0,0,0-5.126,34.509C1318.132,129.8,1318.042,134.091,1318.073,138.375Z" style="
        fill: #5b2448;
      "/>
      </g>
      <g>
        <path d="M1461.634,1889.681H542.953a17.5,17.5,0,0,1,0-35h904.7l119.231-526.366a17.5,17.5,0,1,1,34.135,7.732l-122.319,540A17.5,17.5,0,0,1,1461.634,1889.681Z" style="
        fill: #5b2448;
      "/>
        <path d="M1583.787,1350.188a17.513,17.513,0,0,1-17.09-21.34l133.119-592.365a17.5,17.5,0,0,1,5.813-9.559l219.064-184.139a17.5,17.5,0,0,1,17.166-3.078l159,57a17.5,17.5,0,1,1-11.811,32.947l-149.533-53.606L1732.669,749.917l-131.824,586.6A17.508,17.508,0,0,1,1583.787,1350.188Z" style="
        fill: #3fb1b5;
      "/>
        <g style="
        clip-path: url(#clip-path-6);
      ">
          <path d="M2094.628,666.192a54.256,54.256,0,1,1,54.256-54.255A54.317,54.317,0,0,1,2094.628,666.192Zm0-96.511a42.256,42.256,0,1,0,42.256,42.256A42.3,42.3,0,0,0,2094.628,569.681Z" style="
        fill: #9b3c82;
      "/>
        </g>
        <path d="M1579.955,1350.185H511.388a17.5,17.5,0,0,1-17.027-13.463L375.426,835.17a17.5,17.5,0,0,1,17.026-21.538l1302.5-.125a17.5,17.5,0,0,1,0,35l-1280.367.123,110.636,466.555H1579.955a17.5,17.5,0,0,1,0,35Z" style="
        fill: #3fb1b5;
      "/>
        <path d="M1642.318,1084.681H454.921a17.5,17.5,0,0,1,0-35h1187.4a17.5,17.5,0,0,1,0,35Z" style="
        fill: #3fb1b5;
      "/>
        <path d="M1044.953,1350.219a17.5,17.5,0,0,1-17.5-17.5V835.925a17.5,17.5,0,0,1,35,0v496.794A17.5,17.5,0,0,1,1044.953,1350.219Z" style="
        fill: #3fb1b5;
      "/>
        <path d="M771.039,1349.212a17.5,17.5,0,0,1-17.336-15.28L689.6,833.229a17.5,17.5,0,0,1,34.717-4.445l64.108,500.7a17.516,17.516,0,0,1-17.381,19.725Z" style="
        fill: #3fb1b5;
      "/>
        <path d="M1322.148,1349.212a17.52,17.52,0,0,1-17.378-19.744l64.423-498.736a17.5,17.5,0,1,1,34.711,4.484l-64.423,498.735A17.5,17.5,0,0,1,1322.148,1349.212Z" style="
        fill: #3fb1b5;
      "/>
        <circle cx="1318.959" cy="1948.692" r="79.989" style="
        fill: #3fb1b5;
      "/>
        <circle cx="2094.628" cy="611.937" r="43.744" style="
        fill: #ffcf2d;
      "/>
        <circle cx="706.959" cy="1948.692" r="79.989" style="
        fill: #3fb1b5;
      "/>
      </g>
      <g>
        <path d="M643.453,852.681c108,116,153.013,163.1,105,228s-234,19-208-428C540.453,652.681,576.338,780.594,643.453,852.681Z" style="
        fill: #5b2448;
      "/>
        <path d="M629.534,836.651c-14.681,8.11-28.831,16.78-42.27,25.66-13.551,8.95-26.381,18.12-38.3,27.11q-6.613,4.98-12.83,9.88c-44.57,35.04-73.649,65.26-75.579,67.27a1.329,1.329,0,0,0-.1.11c-31.709,10.65-56.77,13.53-76.57,11.66-24.27-2.28-40.629-11.69-51.609-22.66a80.319,80.319,0,0,1-21.821-42c1.5-2.99,3.63-6.68,6.341-10.96,16.319-25.78,53.409-73.25,96.74-122.54.679-.78,1.379-1.56,2.069-2.35q6.661-7.545,13.491-15.13c36.75-40.72,76.579-81.1,111.359-110.02Z" style="
        fill: #f4ada2;
      "/>
        <path d="M629.534,836.651c-14.681,8.11-28.831,16.78-42.27,25.66-6.49-15.07-13.67-32.31-21.351-51.62-32.089-80.68-25.46-158.01-25.46-158.01Z" style="
        fill: #9b3c82;
      "/>
        <path d="M536.133,899.3c-44.57,35.04-73.649,65.26-75.579,67.27a1.329,1.329,0,0,0-.1.11c-31.709,10.65-56.77,13.53-76.57,11.66l-51.609-22.66a80.319,80.319,0,0,1-21.821-42c1.5-2.99,3.63-6.68,6.341-10.96,16.319-25.78,53.409-73.25,96.74-122.54.679-.78,1.379-1.56,2.069-2.35Z" style="
        fill: #66b0f0;
      "/>
        <g style="
        clip-path: url(#clip-path-7);
      ">
          <rect x="438.686" y="774.736" width="9.999" height="188.643" transform="translate(-484.889 569.278) rotate(-45.062)" style="
        fill: #fff;
      "/>
        </g>
        <path d="M845.453,841.681c-18.618,61.759-58,195-96.987,239.1,0,0,43.987-60.1-38.013-145.1-89.843-93.13-146-177-170-283,0,0,251-226,385.117-152.972,29.271,15.939,60.678,39.18,93.883,68.972C1019.453,568.681,886.453,705.681,845.453,841.681Z" style="
        fill: #f94f46;
      "/>
        <g style="
        clip-path: url(#clip-path-8);
      ">
          <path d="M539.455,659.681a3,3,0,0,1-1.909-5.316c2.311-1.9,4.9-4.054,7.754-6.425,38.347-31.857,128.148-106.461,223.1-142.068,56.483-21.181,94.691-26.137,131.886-17.106,37.987,9.223,76.275,33.174,132.157,82.669a3,3,0,1,1-3.979,4.492c-102.752-91.009-153.38-103.654-257.957-64.437-94,35.251-183.259,109.4-221.373,141.065-2.86,2.377-5.457,4.534-7.773,6.442A2.991,2.991,0,0,1,539.455,659.681Z" style="
        fill: #fcb6b1;
      "/>
        </g>
        <g>
          <path d="M33.452,888.9c1.238,20.123,19.668,55.2,71.283,89.864l251.27,168.763c28.448-54.843,46.448-116.843,117.448-195.843-56-20-65,16-144.934-37.824-26.585-17.9-36.777-19.19-71.124-32.291-1.322-.5-2.662-.9-3.985-1.349-.371-.124-.728-.25-1.091-.369A366.532,366.532,0,0,0,182.842,863.8c-91.15-11.47-143.765,21.383-148.965,24.8a.009.009,0,0,0-.013,0c-.121.078-.215.15-.281.2C33.494,888.868,33.452,888.9,33.452,888.9Z" style="
        fill: #fff;
      "/>
          <path d="M356.152,1150.122a2.5,2.5,0,0,1-1.394-.424L103.341,980.836C52.014,946.363,32.3,910.819,30.957,889.05a2.5,2.5,0,0,1,1.087-2.219l.088-.064c.112-.081.215-.156.333-.234.055-.037.112-.072.169-.105,6.664-4.348,62.083-38.241,152.876-26.817,26.442,3.339,83.515,16.24,129.711,43.415a2.5,2.5,0,1,1-2.535,4.31c-45.5-26.763-101.74-39.473-127.8-42.764C98.469,853.7,45.07,884.473,36.072,890.163c1.074,9.781,9.232,45.67,70.056,86.522l249,167.24q5.307-11.284,10.21-21.985c24.51-53.129,45.677-99.013,106.7-171.371a2.5,2.5,0,0,1,3.823,3.224c-60.59,71.842-81.626,117.442-105.984,170.242-3.672,7.96-7.469,16.191-11.469,24.656a2.494,2.494,0,0,1-2.26,1.431Z" style="
        fill: #5b2448;
      "/>
          <path d="M401.691,1052.053a2.491,2.491,0,0,1-1.319-.378c-.678-.424-16.747-10.724-26.414-40.866-2.019-6.3-3.487-11.656-4.782-16.384-4.855-17.721-7.292-26.616-27.695-46.589a2.5,2.5,0,0,1,3.5-3.573C366.349,965.183,369.066,975.1,374,993.1c1.282,4.679,2.735,9.982,4.722,16.178,9.058,28.244,24.154,38.059,24.306,38.155a2.5,2.5,0,0,1-1.335,4.616Z" style="
        fill: #5b2448;
      "/>
          <path d="M382.951,1092.681a2.5,2.5,0,0,1-2.478-2.186h0c-.039-.307-4.323-30.916-37.21-47.272-15.434-7.676-26.449-6.813-38.109-5.9-8.8.689-17.888,1.4-28.851-1.744-13.919-3.993-21.3-11.011-28.433-17.8-8.369-7.96-17.022-16.191-37.2-20.133-32.953-6.437-61.866-16.629-85.935-30.292-36.988-21-62.8-50.116-76.723-86.551a2.5,2.5,0,1,1,4.67-1.785c13.5,35.322,38.57,63.579,74.521,83.988,23.6,13.4,52,23.4,84.426,29.733,21.608,4.221,30.8,12.963,39.687,21.417,7.007,6.665,13.625,12.96,26.366,16.615,10.1,2.9,18.346,2.25,27.081,1.566,11.826-.927,24.054-1.885,40.727,6.407,35.371,17.591,39.774,49.764,39.944,51.125a2.5,2.5,0,0,1-2.17,2.791A2.552,2.552,0,0,1,382.951,1092.681Z" style="
        fill: #5b2448;
      "/>
          <path d="M336.406,1108.433q-.985,0-2.007-.063c-7.64-.471-16.074-3.569-23.748-8.723s-13.733-11.79-17.059-18.684c-3.538-7.333-3.618-14.152-.226-19.2h0c3.391-5.049,9.735-7.554,17.859-7.053,7.641.471,16.074,3.569,23.748,8.723s13.733,11.79,17.059,18.684c3.538,7.333,3.618,14.152.226,19.2C349.152,1105.943,343.568,1108.433,336.406,1108.433Zm-27.191-48.787c-5.438,0-9.556,1.713-11.7,4.9h0c-2.361,3.515-2.155,8.572.579,14.24,2.946,6.106,8.4,12.039,15.343,16.706s14.5,7.466,21.268,7.884c6.294.387,11.04-1.336,13.4-4.851s2.155-8.572-.579-14.24c-2.947-6.106-8.395-12.039-15.343-16.706s-14.5-7.466-21.269-7.884Q310.047,1059.646,309.215,1059.646Zm-13.774,3.51h0Z" style="
        fill: #5b2448;
      "/>
          <path d="M265.255,963.478a7.505,7.505,0,0,1-7.386-8.848c.012-.072,1.672-9.842-.466-24.219-2.85-19.148-10.731-37-23.424-53.051a7.5,7.5,0,1,1,11.765-9.3c34.679,43.859,27.215,87.433,26.88,89.267A7.5,7.5,0,0,1,265.255,963.478Z" style="
        fill: #ffcf2d;
      "/>
          <path d="M226.878,954.724a7.734,7.734,0,0,1-.919-.056,7.5,7.5,0,0,1-6.535-8.354c.047-.408,4.614-42.983-27.278-77.162a7.5,7.5,0,1,1,10.967-10.233c36.8,39.437,31.446,87.2,31.2,89.213A7.5,7.5,0,0,1,226.878,954.724Z" style="
        fill: #ffcf2d;
      "/>
          <path d="M185.382,940.472c-.247,0-.5-.012-.746-.037a7.5,7.5,0,0,1-6.726-8.2c.032-.344,3.058-37.018-25.924-67.335a7.5,7.5,0,1,1,10.842-10.365c33.9,35.458,30.184,77.406,30.009,79.175A7.5,7.5,0,0,1,185.382,940.472Z" style="
        fill: #ffcf2d;
      "/>
        </g>
      </g>
      <g>
        <path d="M1707.453,685.681c30.14-6.968,114.247-29.5,158,16,25,26-17,115-160,60-88.254-33.944-269.844-2.422-269.844-2.422Z" style="
        fill: #5b2448;
      "/>
        <path d="M1737.453,678.681q-6.78,27.1-14.93,52.37c-.65,2-1.289,3.99-1.949,5.97-.1.31-.2.63-.31.94s-.2.63-.311.95c-72.08,216.8-213.479,329.79-314.5,318.77-106.04-11.57-225.979-204.06-308.34-314.23q-.63-.825-1.23-1.65c-.8-1.05-1.579-2.09-2.349-3.12-5.911-7.82-11.6-15.19-17.081-22-9.76-12.14-18.59-22.28-26.679-30.87-4.831-5.13-9.4-9.7-13.74-13.81-.31-.29-.611-.58-.911-.86-38.649-36.27-59.52-36.07-91.67-67.46-17.34-16.93-11-31-11-31-6.409-8.25-14-23-6-32-19-24-3-38-3-38-17-25-3-45,4-44,16,36,111,72,140,60s10.031-47.75,10.031-47.75c39.03,1.25,40.42,51.95,54.969,90.75,4.311,11.5,11.13,25.16,20.69,36.57.011.01.011.01.02.01,10.391,12.4,22.86,24.52,35.15,35.82q3.421,3.135,6.83,6.17c.06.06.13.11.19.16,14.81,13.17,29.31,24.61,40.321,32.87,3.019,2.26,5.79,4.29,8.219,6.05,5.31,3.84,9.06,6.4,10.58,7.35,43,27,162,125,162,125a378.325,378.325,0,0,0,19.161-52.42c10.83-10.57,25.36-19.79,42.21-27.82C1571.654,686.7,1737.453,678.681,1737.453,678.681Z" style="
        fill: #f4ada2;
      "/>
        <path d="M1737.453,678.681q-6.78,27.1-14.93,52.37c-.65,2-1.289,3.99-1.949,5.97a418.462,418.462,0,0,0-54.25,9.58c-60.871,15.08-137.241,28.74-230.71,12.66l42.21-27.82C1571.654,686.7,1737.453,678.681,1737.453,678.681Z" style="
        fill: #9b3c82;
      "/>
        <g style="
        clip-path: url(#clip-path-9);
      ">
          <path d="M955.952,531.681a2.5,2.5,0,0,1-1-.207c-.962-.419-23.748-10.465-37.976-28.758a2.5,2.5,0,1,1,3.947-3.07c13.428,17.265,35.8,27.145,36.025,27.243a2.5,2.5,0,0,1-1,4.792Z" style="
        fill: #9b3c82;
      "/>
          <path d="M956.953,566.682a2.518,2.518,0,0,1-.791-.129c-.886-.3-21.881-7.451-36.182-25.837a2.5,2.5,0,1,1,3.947-3.07c13.38,17.2,33.614,24.1,33.817,24.163a2.5,2.5,0,0,1-.791,4.873Z" style="
        fill: #9b3c82;
      "/>
          <path d="M957.953,595.682a2.477,2.477,0,0,1-.907-.172c-9.393-3.657-22.925-11.586-30.14-21.9a2.5,2.5,0,1,1,4.1-2.867c7.033,10.045,20.821,17.364,27.86,20.1a2.5,2.5,0,0,1-.908,4.831Z" style="
        fill: #9b3c82;
      "/>
        </g>
        <g>
          <path d="M1195.333,640.411a251.227,251.227,0,0,0-60.83,44.21c-3.33,3.28-6.659,6.75-9.949,10.39a225.385,225.385,0,0,0-31.02,43.67c-.371.66-.73,1.33-1.081,2l-.03-.03c-1.929-2.68-3.929-5.35-5.97-8.01a471.041,471.041,0,0,0-32.9-38.14q-2.852-2.985-5.721-5.91c.59-.87,1.23-1.79,1.941-2.78,2.01-2.84,4.48-6.17,7.409-9.86a288.793,288.793,0,0,1,26.45-28.93q4.442-4.245,9.351-8.56a269.031,269.031,0,0,1,60.159-40.21c.011.01.011.01.02.01,10.391,12.4,22.86,24.52,35.15,35.82q3.421,3.135,6.83,6.17C1195.2,640.311,1195.273,640.361,1195.333,640.411Z" style="
        fill: #5b2448;
      "/>
          <g style="
        clip-path: url(#clip-path-10);
      ">
            <path d="M1095.119,744.906a53.527,53.527,0,0,1-12.6-1.543c-14.331-3.469-27.459-12.441-36.965-25.263-19.728-26.608-17.571-61.755,4.809-78.349h0c22.38-16.594,56.64-8.446,76.366,18.16s17.571,61.755-4.809,78.349A44.5,44.5,0,0,1,1095.119,744.906Zm-41.777-101.138c-20.166,14.952-21.857,46.961-3.771,71.354,8.811,11.883,20.93,20.187,34.126,23.381,13.029,3.154,25.546.932,35.246-6.26,20.166-14.952,21.857-46.961,3.771-71.354s-49.207-32.073-69.372-17.121Z" style="
        fill: #fff;
      "/>
          </g>
          <ellipse cx="1085.777" cy="688.822" rx="46.812" ry="56.113" transform="translate(-196.67 782.186) rotate(-36.555)" style="
        fill: #5b2448;
      "/>
          <ellipse cx="1080.178" cy="693.776" rx="40.412" ry="54.41" transform="translate(-200.722 779.826) rotate(-36.555)" style="
        fill: #fff;
      "/>
          <path d="M1077.262,701.153a2.5,2.5,0,0,1-1.873-.844l-22.637-25.592a2.5,2.5,0,0,1,3.746-3.313l20.751,23.461,14.121-16.183a2.5,2.5,0,1,1,3.768,3.287L1079.146,700.3a2.5,2.5,0,0,1-1.875.857Z" style="
        fill: #5b2448;
      "/>
        </g>
        <path d="M1661.453,391.681c-52.862-81.207-121-90-160,33-31.331,98.816-43.946,247.33-65.844,334.578,0,0,96.478,4.13,208.844-47.578,113-52,193-36,221-10,0,0-66-65-111-147C1697.649,451.171,1683.582,425.675,1661.453,391.681Z" style="
        fill: #ffcf2d;
      "/>
      </g>
    </g>
  </g>
</svg>